<svg id="Calque_1" data-name="Calque 1" xmlns="http://www.w3.org/2000/svg" viewBox="0 0 370.42 152.42"><defs><style>.cls-1{fill:#fff;}</style></defs><title>dYb_logo</title><path class="cls-1" d="M72.41,43.48v53H67.56V89.93a21.18,21.18,0,0,1-6.94,5.66,19.44,19.44,0,0,1-22.29-4,19.78,19.78,0,0,1-5.75-14.33,19.39,19.39,0,0,1,5.8-14.13,18.9,18.9,0,0,1,14-5.87,18,18,0,0,1,8.53,2,19.44,19.44,0,0,1,6.69,6V43.48ZM52.74,62A14.84,14.84,0,0,0,39.63,69.7a15.45,15.45,0,0,0,0,15.45,15,15,0,0,0,5.56,5.74A14.55,14.55,0,0,0,52.71,93a15.33,15.33,0,0,0,7.65-2,14.19,14.19,0,0,0,5.57-5.51,15.74,15.74,0,0,0,1.95-7.83,15.25,15.25,0,0,0-4.37-11.1A14.52,14.52,0,0,0,52.74,62Z" transform="translate(-32.58 -29.12)"/><path class="cls-1" d="M119.44,43.48v21.8a19.44,19.44,0,0,1,6.69-6,18,18,0,0,1,8.53-2,18.9,18.9,0,0,1,14,5.87,19.39,19.39,0,0,1,5.8,14.13,19.78,19.78,0,0,1-5.75,14.33,19.44,19.44,0,0,1-22.29,4,21.18,21.18,0,0,1-6.94-5.66V96.5h-4.85v-53Zm4,23a15.25,15.25,0,0,0-4.37,11.1,15.74,15.74,0,0,0,1.95,7.83,14.19,14.19,0,0,0,5.57,5.51,15.33,15.33,0,0,0,7.65,2,14.55,14.55,0,0,0,7.5-2.06,15,15,0,0,0,5.56-5.74,15.45,15.45,0,0,0,0-15.45A14.84,14.84,0,0,0,134.26,62,14.52,14.52,0,0,0,123.49,66.47Z" transform="translate(-32.58 -29.12)"/><path class="cls-1" d="M68.63,29.12h7.73l17.2,27.72L110.5,29.12h7.77L97,64.22V96.35H90.34V64.22Z" transform="translate(-32.58 -29.12)"/><polygon points="264.42 4.88 264.42 4.88 264.42 4.88 264.42 4.88 264.42 4.88"/><path class="cls-1" d="M41.54,117.73a.15.15,0,0,1,0-.08,0,0,0,0,1,0,0c.57-1.21,1.13-2.38,1.69-3.5s1.13-2.22,1.7-3.26,1.19-2,1.82-3,1.3-1.92,2-2.83c.4-.46.73-.66,1-.61a.81.81,0,0,1,.55.57,3.74,3.74,0,0,1,.21,1.14,5.86,5.86,0,0,1,0,1.07,22.94,22.94,0,0,1-1.11,3.41c-.47,1.13-1,2.26-1.58,3.39s-1.22,2.25-1.9,3.36-1.36,2.24-2.06,3.36a1.08,1.08,0,0,0-.2.34,3.14,3.14,0,0,0-.13.4c0,.16-.08.4-.12.7a7.15,7.15,0,0,0-.08,1,3.66,3.66,0,0,0,.07.9.69.69,0,0,0,.3.53,1.27,1.27,0,0,0,1-.07,7.3,7.3,0,0,0,1.35-.7,15.88,15.88,0,0,0,1.44-1.08,14.56,14.56,0,0,0,1.25-1.15s.09,0,.16,0a.46.46,0,0,1,.18.21.56.56,0,0,1,.06.32.51.51,0,0,1-.21.34c-.42.37-.94.83-1.55,1.39a21.82,21.82,0,0,1-1.93,1.55,8.34,8.34,0,0,1-2,1.08,1.94,1.94,0,0,1-1.65,0,1.82,1.82,0,0,1-.89-1.06,5,5,0,0,1-.29-1.59,10.78,10.78,0,0,1,.07-1.71c.06-.55.12-1,.18-1.33a.56.56,0,0,0-.1.15,1.5,1.5,0,0,1-.09.18c-.26.29-.55.65-.88,1.06a9.79,9.79,0,0,1-1.09,1.14,4.57,4.57,0,0,1-1.25.8,1.8,1.8,0,0,1-1.35,0,2.66,2.66,0,0,1-.67-.53,1.21,1.21,0,0,1-.29-.84,5.88,5.88,0,0,1,.4-2.06,6.51,6.51,0,0,1,1.09-1.86,5.08,5.08,0,0,1,1.62-1.29,3.62,3.62,0,0,1,2-.39,3.72,3.72,0,0,1,.62.15,1.19,1.19,0,0,1,.54.34Zm-4.32,4.15.06.08,1.88-1.47c.63-.48,1.29-1,2-1.44a1.7,1.7,0,0,0-1.26-.07,3.81,3.81,0,0,0-1.26.69,4.71,4.71,0,0,0-1,1.1A2.15,2.15,0,0,0,37.22,121.88Zm12.34-13.71a50.18,50.18,0,0,0-3.08,5.47,51.59,51.59,0,0,0-2.36,5.79q.63-1.16,1.5-2.64c.57-1,1.14-2,1.69-3s1-2,1.45-3A10.84,10.84,0,0,0,49.56,108.17Z" transform="translate(-32.58 -29.12)"/><path class="cls-1" d="M54.28,119.93a3.1,3.1,0,0,0,.72-.17l.71-.22c.26-.07.53-.16.81-.26a6.35,6.35,0,0,1,.81-.23c.19,0,.26,0,.22.15a1,1,0,0,1-.26.36,4.72,4.72,0,0,1-.46.4l-.4.27a8,8,0,0,1-1.31.47,5.58,5.58,0,0,0-1.22.46q-.24.45-.69,1.17a13.21,13.21,0,0,1-1,1.42,8,8,0,0,1-1.13,1.18,1.78,1.78,0,0,1-1.14.49,2,2,0,0,1-1.32-.44,1.65,1.65,0,0,1-.62-.85,4.47,4.47,0,0,1-.24-1.25,6.44,6.44,0,0,1,0-1.32A8.3,8.3,0,0,1,48,120.5a.8.8,0,0,1,.08-.26l.11-.09.13-.06a.3.3,0,0,0,.12-.11c.06-.2.11-.41.17-.63a2,2,0,0,1,.24-.6,6.63,6.63,0,0,1,1.2-1.53,2.8,2.8,0,0,1,1.69-.81,2.28,2.28,0,0,1,1.11.06,1.88,1.88,0,0,1,.89.63,2.12,2.12,0,0,1,.47.78,3.2,3.2,0,0,1,.16.83,3.39,3.39,0,0,1,0,.72Zm-4,4.5a1.28,1.28,0,0,0,.62-.39,6.57,6.57,0,0,0,.66-.79,7.64,7.64,0,0,0,.55-.89,4.2,4.2,0,0,0,.32-.76,11,11,0,0,1-1.18.06,6.34,6.34,0,0,1-1.19-.11,3,3,0,0,0-.11.64c0,.27,0,.54,0,.83a6.88,6.88,0,0,0,.11.81A1.94,1.94,0,0,0,50.27,124.43Zm2.45-4.23a.18.18,0,0,0,.11,0,.15.15,0,0,0,.05-.11,2.76,2.76,0,0,0,.21-1.16,1.39,1.39,0,0,0-.4-1,.71.71,0,0,0-.49-.25,1.06,1.06,0,0,0-.58.11,3,3,0,0,0-.88.77c-.22.29-.43.59-.63.91a.31.31,0,0,0,0,.19.62.62,0,0,1,.25.55c0,.09.11.14.32.16s.45,0,.71,0,.52,0,.77-.07A4,4,0,0,1,52.72,120.2Z" transform="translate(-32.58 -29.12)"/><path class="cls-1" d="M64.07,124.6a1.9,1.9,0,0,1-1.34-.22,1.52,1.52,0,0,1-.75-1.07,7.21,7.21,0,0,1-.11-1.38c0-.51,0-1,.08-1.55a14.62,14.62,0,0,1,.23-1.52c.1-.5.21-.94.32-1.32a.45.45,0,0,1,.43-.25,1.69,1.69,0,0,1,.6.12,2.27,2.27,0,0,1,.55.32.94.94,0,0,1,.29.38,2.65,2.65,0,0,1-.15,1.14c-.16.53-.33,1.07-.51,1.64s-.33,1.09-.44,1.58-.09.79,0,.92.3.1.51-.1a4.11,4.11,0,0,0,.68-.85c.23-.37.48-.81.74-1.32s.51-1,.75-1.49l.68-1.38c.2-.42.36-.74.49-1s.12-.11.26-.1a1.06,1.06,0,0,1,.43.13,1.81,1.81,0,0,1,.41.29.79.79,0,0,1,.25.39,6.45,6.45,0,0,1,.16,2.08,13.61,13.61,0,0,1-.3,2.1c.68-.53,1.34-1,2-1.43a15,15,0,0,1,2.1-1.12,1,1,0,0,1,.43-.13,1.91,1.91,0,0,1,.53,0q.22,0,.24.18t-.51.48A31.16,31.16,0,0,0,70.6,122l-2.41,1.92a.69.69,0,0,0-.25.44,24.47,24.47,0,0,1-.77,3.41,38.42,38.42,0,0,1-1.33,3.76,31.91,31.91,0,0,1-1.76,3.62,17.92,17.92,0,0,1-2,2.95,4,4,0,0,1-1.45,1.11,2.25,2.25,0,0,1-1.42.15,1.8,1.8,0,0,1-1.07-.81,3.39,3.39,0,0,1-.45-1.77,14,14,0,0,1,1.15-3.31,23.31,23.31,0,0,1,1.91-3.16c.74-1,1.56-2.07,2.46-3.1S65,125.08,66,124a1.3,1.3,0,0,0,.36-.64,8.68,8.68,0,0,0,.27-1.09c.07-.38.12-.75.15-1.08a1.8,1.8,0,0,0,0-.62c-.19.33-.39.72-.61,1.16s-.45.88-.68,1.3a9,9,0,0,1-.72,1.07A1.08,1.08,0,0,1,64.07,124.6Zm-5.14,13.27c.2.07.49-.12.88-.59a18.18,18.18,0,0,0,1.29-1.87c.47-.78,1-1.65,1.45-2.61s1-1.9,1.36-2.8.76-1.73,1-2.46a5.88,5.88,0,0,0,.44-1.57q-.7.77-1.56,1.86t-1.68,2.28c-.55.79-1.06,1.6-1.55,2.43a21.72,21.72,0,0,0-1.21,2.31,8.44,8.44,0,0,0-.63,1.88A1.25,1.25,0,0,0,58.93,137.87Z" transform="translate(-32.58 -29.12)"/><path class="cls-1" d="M77.8,119.93a3.1,3.1,0,0,0,.72-.17c.25-.09.49-.16.71-.22s.53-.16.81-.26a6.35,6.35,0,0,1,.81-.23c.19,0,.26,0,.22.15a1,1,0,0,1-.26.36,4.9,4.9,0,0,1-.47.4l-.39.27a8,8,0,0,1-1.31.47,5.58,5.58,0,0,0-1.22.46q-.26.45-.69,1.17a14.84,14.84,0,0,1-1,1.42,8.51,8.51,0,0,1-1.13,1.18,1.78,1.78,0,0,1-1.14.49,2,2,0,0,1-1.32-.44,1.65,1.65,0,0,1-.62-.85,4.47,4.47,0,0,1-.24-1.25,6.44,6.44,0,0,1,0-1.32,8.3,8.3,0,0,1,.19-1.06.61.61,0,0,1,.08-.26.44.44,0,0,1,.11-.09l.12-.06A.27.27,0,0,0,72,120c0-.2.11-.41.16-.63a2.3,2.3,0,0,1,.25-.6,6.63,6.63,0,0,1,1.2-1.53,2.78,2.78,0,0,1,1.69-.81,2.28,2.28,0,0,1,1.11.06,1.93,1.93,0,0,1,.89.63,2.12,2.12,0,0,1,.47.78,3.68,3.68,0,0,1,.16.83,3.39,3.39,0,0,1,0,.72Zm-4,4.5a1.33,1.33,0,0,0,.62-.39,6.57,6.57,0,0,0,.66-.79,7.64,7.64,0,0,0,.55-.89,4,4,0,0,0,.31-.76,10.82,10.82,0,0,1-1.18.06,6.31,6.31,0,0,1-1.18-.11,3,3,0,0,0-.11.64,5.75,5.75,0,0,0,0,.83,6.88,6.88,0,0,0,.11.81A1.94,1.94,0,0,0,73.79,124.43Zm2.45-4.23a.17.17,0,0,0,.16-.16,2.76,2.76,0,0,0,.21-1.16,1.39,1.39,0,0,0-.4-1,.71.71,0,0,0-.5-.25,1,1,0,0,0-.57.11,3,3,0,0,0-.88.77c-.22.29-.43.59-.63.91a.26.26,0,0,0,.05.19.65.65,0,0,1,.25.55c0,.09.1.14.32.16s.44,0,.71,0,.52,0,.77-.07A4,4,0,0,1,76.24,120.2Z" transform="translate(-32.58 -29.12)"/><path class="cls-1" d="M92.23,120h0v.21A5.38,5.38,0,0,1,91.4,122a9.09,9.09,0,0,0-.53.78,6.77,6.77,0,0,1-.57.81c-.38.43-.74.8-1.08,1.12a5.64,5.64,0,0,1-1.22.86,4.83,4.83,0,0,1-.73.29,2.77,2.77,0,0,1-.8.12,2.08,2.08,0,0,1-.75-.13,1.39,1.39,0,0,1-.61-.5,2.24,2.24,0,0,1-.48-1.3,3.72,3.72,0,0,1,.26-1.55l-.16.16c-.08.07-.16.16-.25.25l-.26.26a.85.85,0,0,1-.18.15,7.41,7.41,0,0,1-.82.71,5.54,5.54,0,0,1-.86.53,2,2,0,0,1-.61.19.82.82,0,0,1-.49-.1,1.55,1.55,0,0,1-.42-.37c-.14-.16-.29-.36-.45-.58a4.12,4.12,0,0,1-.54-1,1.88,1.88,0,0,1-.07-1c0-.13.07-.26.1-.39a1.45,1.45,0,0,1,.12-.35c.11-.31.24-.67.4-1.08s.32-.8.48-1.2.33-.79.48-1.14.29-.65.4-.87.32-.49.58-.49a1,1,0,0,1,.7.3,2,2,0,0,1,.48.79,1.22,1.22,0,0,1-.08,1c-.1.22-.23.53-.42.93l-.56,1.25c-.19.43-.36.84-.51,1.22a3.75,3.75,0,0,0-.25.86q0,.6.24.63a1,1,0,0,0,.63-.3,6.74,6.74,0,0,0,.88-.93c.32-.39.64-.81,1-1.25s.64-.86.92-1.27.53-.75.73-1c.26-.45.47-.86.65-1.22a3.84,3.84,0,0,1,.78-1.06.91.91,0,0,1,.66,0,2.14,2.14,0,0,1,.69.46,1.65,1.65,0,0,1,.42.67.7.7,0,0,1-.06.65c-.33.42-.63.78-.9,1.07a5.31,5.31,0,0,0-.75,1.12c-.13.3-.28.62-.44,1s-.32.72-.46,1.1-.24.74-.33,1.1a2.63,2.63,0,0,0-.06,1c0,.31.15.44.46.38a3.51,3.51,0,0,0,1.46-.7,13.68,13.68,0,0,0,1.56-1.35c.52-.5,1-1,1.43-1.48A14.15,14.15,0,0,1,92.23,120Z" transform="translate(-32.58 -29.12)"/><path class="cls-1" d="M97.75,117.46a6,6,0,0,0-1.92,1.38,18.14,18.14,0,0,0-1.67,2c-.52.75-1,1.53-1.52,2.33s-1,1.56-1.48,2.26a.45.45,0,0,1-.53.13.56.56,0,0,1-.38-.42,1,1,0,0,1,0-.67c.13-.44.26-.94.37-1.49s.24-1.12.35-1.73.22-1.21.34-1.81.24-1.18.37-1.73a.61.61,0,0,1,.26-.35,1,1,0,0,1,.46-.13.81.81,0,0,1,.44.09.53.53,0,0,1,.24.33,3,3,0,0,1-.07,1.32c-.11.51-.25,1-.39,1.51q.49-.6,1.08-1.41A13.49,13.49,0,0,1,95,117.61a7,7,0,0,1,1.49-1.16,2.71,2.71,0,0,1,1.63-.37,1.42,1.42,0,0,1,.7.45,2.22,2.22,0,0,1,.4.72,2.76,2.76,0,0,1,.15.78,1.88,1.88,0,0,1-.07.66q-.2.39-.45.84a5,5,0,0,0-.41.92,2.7,2.7,0,0,0-.13.92,1.18,1.18,0,0,0,.44.81c.11.15.1.26,0,.33a1.12,1.12,0,0,1-.53.12,2.12,2.12,0,0,1-.66-.07.8.8,0,0,1-.46-.24,2.79,2.79,0,0,1-.54-1.23,3.52,3.52,0,0,1,0-1.25,5.18,5.18,0,0,1,.44-1.23A8.34,8.34,0,0,1,97.75,117.46Z" transform="translate(-32.58 -29.12)"/><path class="cls-1" d="M108.3,119.74a8.05,8.05,0,0,1,1-.66l1-.55a5,5,0,0,1,1-.43,4,4,0,0,1,1.11-.19,2.13,2.13,0,0,1,1,.2,1.45,1.45,0,0,1,.66.8c0,.11,0,.17.05.19a.37.37,0,0,0,.17,0,12,12,0,0,1,1.88.15,3.58,3.58,0,0,1,1.52.56c.13.1.19.16.17.2a.26.26,0,0,1-.15.08,1.29,1.29,0,0,1-.29,0h-.19c-.43,0-.82-.09-1.2-.15a6.12,6.12,0,0,0-1.14-.1h-.6a9.71,9.71,0,0,1-.5,1.79,7.43,7.43,0,0,1-.93,1.71,5.08,5.08,0,0,1-1.38,1.28,2.94,2.94,0,0,1-1.78.44,2.25,2.25,0,0,1-1.09-.19,2,2,0,0,1-.68-.57,2.63,2.63,0,0,1-.42-.75,8,8,0,0,1-.23-.77.14.14,0,0,1,0,.1.11.11,0,0,0-.06.09c-.13.37-.26.73-.38,1.1s-.28.76-.43,1.17-.33.85-.52,1.32l-.65,1.55c0,.09-.07.15-.11.16l-.14.09a.33.33,0,0,1-.28.08.26.26,0,0,1-.21-.17,13.37,13.37,0,0,1,.12-2.67c.14-.91.32-1.81.55-2.71s.49-1.78.77-2.64.55-1.69.79-2.5c.64-1.85,1.31-3.56,2-5.15s1.47-3.15,2.28-4.71l1-1.79a8.72,8.72,0,0,1,1.12-1.59,1.13,1.13,0,0,1,.48-.36.76.76,0,0,1,.59,0,.89.89,0,0,1,.52,1c-.09.69-.21,1.39-.37,2.1a13,13,0,0,1-.65,2.07,34.8,34.8,0,0,1-1.84,3.78,23.72,23.72,0,0,1-2.33,3.42,1.73,1.73,0,0,0-.33.58c-.11.27-.22.57-.32.88s-.19.62-.29.92A5.25,5.25,0,0,1,108.3,119.74Zm-.72,2.14a.73.73,0,0,0,.5-.15,3.51,3.51,0,0,1,.36-.29,8,8,0,0,1,1.41-1.17,15.36,15.36,0,0,1,1.64-.92,3.3,3.3,0,0,0,.68-.36H112a.37.37,0,0,1-.16.07.9.9,0,0,0-.22.07,10.22,10.22,0,0,0-3.74,2.36.3.3,0,0,0-.11.17A.5.5,0,0,1,107.58,121.88Zm1.32.22a1.78,1.78,0,0,0,1.16.33,2.51,2.51,0,0,0,1.12-.39,2.74,2.74,0,0,0,.88-.88,2.52,2.52,0,0,0,.42-1.15,13.83,13.83,0,0,0-1.86,1C110,121.36,109.43,121.73,108.9,122.1Zm5.22-15.55a40.08,40.08,0,0,0-2.11,4.06c-.62,1.4-1.25,2.79-1.87,4.18a5,5,0,0,0,.62-.84c.25-.39.51-.84.78-1.34s.55-1,.83-1.64.53-1.15.76-1.7.45-1.07.62-1.56A10.33,10.33,0,0,0,114.12,106.55Z" transform="translate(-32.58 -29.12)"/><path class="cls-1" d="M122.5,119.93a3.1,3.1,0,0,0,.72-.17c.25-.09.49-.16.71-.22s.53-.16.81-.26a6.35,6.35,0,0,1,.81-.23c.19,0,.26,0,.22.15a1,1,0,0,1-.26.36,4.9,4.9,0,0,1-.47.4l-.39.27a8,8,0,0,1-1.31.47,5.58,5.58,0,0,0-1.22.46q-.25.45-.69,1.17a14.84,14.84,0,0,1-1,1.42,8.51,8.51,0,0,1-1.13,1.18,1.78,1.78,0,0,1-1.14.49,2,2,0,0,1-1.32-.44,1.65,1.65,0,0,1-.62-.85,4.47,4.47,0,0,1-.24-1.25,6.44,6.44,0,0,1,0-1.32,8.3,8.3,0,0,1,.19-1.06.8.8,0,0,1,.08-.26l.11-.09.13-.06a.3.3,0,0,0,.12-.11c0-.2.11-.41.16-.63a2.3,2.3,0,0,1,.25-.6,6.63,6.63,0,0,1,1.2-1.53,2.78,2.78,0,0,1,1.69-.81,2.28,2.28,0,0,1,1.11.06,1.93,1.93,0,0,1,.89.63,2.12,2.12,0,0,1,.47.78,3.2,3.2,0,0,1,.16.83,3.39,3.39,0,0,1,0,.72Zm-4,4.5a1.28,1.28,0,0,0,.62-.39,6.57,6.57,0,0,0,.66-.79,7.64,7.64,0,0,0,.55-.89,5.07,5.07,0,0,0,.32-.76,11,11,0,0,1-1.19.06,6.31,6.31,0,0,1-1.18-.11,3,3,0,0,0-.11.64,5.75,5.75,0,0,0,0,.83,6.88,6.88,0,0,0,.11.81A1.94,1.94,0,0,0,118.49,124.43Zm2.45-4.23a.17.17,0,0,0,.16-.16,2.76,2.76,0,0,0,.21-1.16,1.39,1.39,0,0,0-.4-1,.71.71,0,0,0-.49-.25,1,1,0,0,0-.58.11,3,3,0,0,0-.88.77c-.22.29-.43.59-.63.91a.31.31,0,0,0,0,.19.62.62,0,0,1,.25.55c0,.09.1.14.32.16s.44,0,.71,0,.52,0,.77-.07A4,4,0,0,1,120.94,120.2Z" transform="translate(-32.58 -29.12)"/><path class="cls-1" d="M130.66,119.93a3.1,3.1,0,0,0,.72-.17c.25-.09.49-.16.71-.22s.53-.16.81-.26a6.35,6.35,0,0,1,.81-.23c.19,0,.26,0,.22.15a1,1,0,0,1-.26.36c-.14.13-.29.27-.46.4l-.4.27a8,8,0,0,1-1.31.47,5.58,5.58,0,0,0-1.22.46q-.25.45-.69,1.17a14.84,14.84,0,0,1-1,1.42,8.51,8.51,0,0,1-1.13,1.18,1.78,1.78,0,0,1-1.14.49A2,2,0,0,1,125,125a1.65,1.65,0,0,1-.62-.85,4.47,4.47,0,0,1-.24-1.25,6.44,6.44,0,0,1,0-1.32,8.3,8.3,0,0,1,.19-1.06.8.8,0,0,1,.08-.26l.11-.09.13-.06a.3.3,0,0,0,.12-.11c0-.2.11-.41.16-.63a2.3,2.3,0,0,1,.25-.6,6.63,6.63,0,0,1,1.2-1.53,2.78,2.78,0,0,1,1.69-.81,2.28,2.28,0,0,1,1.11.06,1.93,1.93,0,0,1,.89.63,2.12,2.12,0,0,1,.47.78,3.2,3.2,0,0,1,.16.83,3.39,3.39,0,0,1,0,.72Zm-4,4.5a1.28,1.28,0,0,0,.62-.39,6.57,6.57,0,0,0,.66-.79,7.64,7.64,0,0,0,.55-.89,5.07,5.07,0,0,0,.32-.76,11,11,0,0,1-1.19.06,6.31,6.31,0,0,1-1.18-.11,3,3,0,0,0-.11.64,5.75,5.75,0,0,0,0,.83,6.88,6.88,0,0,0,.11.81A1.94,1.94,0,0,0,126.65,124.43Zm2.45-4.23a.17.17,0,0,0,.16-.16,2.76,2.76,0,0,0,.21-1.16,1.39,1.39,0,0,0-.4-1,.71.71,0,0,0-.49-.25,1,1,0,0,0-.58.11,3,3,0,0,0-.88.77c-.22.29-.43.59-.63.91a.31.31,0,0,0,.05.19.62.62,0,0,1,.25.55c0,.09.11.14.32.16s.44,0,.71,0,.52,0,.77-.07A4,4,0,0,1,129.1,120.2Z" transform="translate(-32.58 -29.12)"/><path class="cls-1" d="M133.77,127.43a.45.45,0,0,0,.67.33,4,4,0,0,0,1.18-.83,15.85,15.85,0,0,0,1.42-1.54c.49-.6,1-1.19,1.41-1.78s.84-1.12,1.17-1.59.55-.79.66-.94a2.51,2.51,0,0,1,.32-.41,3.1,3.1,0,0,1,.45-.41,2,2,0,0,1,.26-.18.37.37,0,0,1,.26-.08c.07,0,.11.06.1.17a1.78,1.78,0,0,1-.21.55c-.11.22-.28.56-.52,1s-.53,1-.88,1.51-.73,1.13-1.15,1.73a17.19,17.19,0,0,1-1.36,1.66,13.18,13.18,0,0,1-1.49,1.35,3.89,3.89,0,0,1-1.52.74,6.15,6.15,0,0,1-1.27.18,1.35,1.35,0,0,1-1-.43,1.77,1.77,0,0,1-.47-1.18,7.58,7.58,0,0,1,.07-1.63,14.68,14.68,0,0,1,.34-1.68c.15-.54.27-1,.36-1.25q.44-1.42.84-2.82l.78-2.78c.28-.83.53-1.68.76-2.55s.46-1.65.7-2.35l-1.13,0-1.15,0c-.39,0-.77,0-1.14-.07a5.69,5.69,0,0,1-1.06-.2,1.23,1.23,0,0,1-.65-.35.75.75,0,0,1-.19-.5.56.56,0,0,1,.27-.42,1.36,1.36,0,0,1,.76-.18c.2,0,.53,0,1,0s.94.07,1.44.09,1,0,1.4,0a2.63,2.63,0,0,0,.84-.1c.06,0,.08,0,.08-.08.11-.33.23-.68.36-1s.26-.73.39-1.07.25-.68.37-1,.22-.58.31-.8a.41.41,0,0,1,.46-.21,2.21,2.21,0,0,1,.71.24,2.61,2.61,0,0,1,.65.48.68.68,0,0,1,.24.53,4.62,4.62,0,0,1-.38,1.4,9.63,9.63,0,0,0-.52,1.57l3,0h3.2a2.71,2.71,0,0,1,.59.07q.21.06.09.15a2.58,2.58,0,0,1-.71.26,25.25,25.25,0,0,1-3.35.84c-1.08.19-2.14.33-3.19.42q-.13,0-.12.06s0,.07-.07.16a.09.09,0,0,1,0,.06.09.09,0,0,0,0,0c-.29.81-.61,1.72-1,2.72s-.69,2-1,3.11-.68,2.11-1,3.13-.58,2-.8,2.79-.38,1.53-.48,2.09A1.76,1.76,0,0,0,133.77,127.43Z" transform="translate(-32.58 -29.12)"/><path class="cls-1" d="M146.63,119.65c-.7.53-1.37,1-2,1.56a11.5,11.5,0,0,0-1.78,1.71,13.9,13.9,0,0,0-.86,1.2,7.1,7.1,0,0,0-.65,1.25.37.37,0,0,1-.52.11,2.53,2.53,0,0,1-.91-1.27,5.1,5.1,0,0,1-.23-1.63,8.68,8.68,0,0,1,.19-1.7c.12-.56.25-1,.37-1.47.3-1.07.63-2.16,1-3.29s.78-2.24,1.21-3.34.87-2.16,1.34-3.18.92-2,1.36-2.86a8.13,8.13,0,0,1,.77-1.21,4.87,4.87,0,0,1,.85-.85.93.93,0,0,1,.51-.21.94.94,0,0,1,.48.1,1,1,0,0,1,.37.31,1,1,0,0,1,.18.43,6.8,6.8,0,0,1-.25,2.72,19.18,19.18,0,0,1-1.12,3.09,23.65,23.65,0,0,1-1.58,2.91,13.39,13.39,0,0,1-1.64,2.16.31.31,0,0,0-.11.17c-.29.77-.55,1.52-.77,2.25s-.45,1.46-.71,2.2q-.06.3-.12.63a3,3,0,0,0-.07.66,5.82,5.82,0,0,1,.71-.8,22.21,22.21,0,0,1,1.79-1.56,12,12,0,0,1,2-1.3,5.57,5.57,0,0,1,.87-.34,1.48,1.48,0,0,1,.86,0,3.06,3.06,0,0,1,.72.28.8.8,0,0,1,.4.58,2.19,2.19,0,0,1-.1.68c-.18.68-.42,1.42-.7,2.23s-.55,1.57-.81,2.29L147,126a2.32,2.32,0,0,0-.22.95q.14.27.54,0a7.42,7.42,0,0,0,1-.8c.37-.37.79-.81,1.23-1.32l1.35-1.55c.45-.52.88-1,1.31-1.49s.77-.83,1.07-1.11.44-.34.6-.3.19.23.08.58-.38.62-.71,1.11-.72,1-1.17,1.61-.93,1.18-1.44,1.78a20.68,20.68,0,0,1-1.53,1.65,11.42,11.42,0,0,1-1.44,1.22,2.19,2.19,0,0,1-1.18.48,2.17,2.17,0,0,1-.92-.19,2.29,2.29,0,0,1-.73-.53,2.33,2.33,0,0,1-.45-.8,2.51,2.51,0,0,1-.1-1,4.14,4.14,0,0,1,.09-.46c0-.15.08-.34.13-.56q.3-.8.57-1.59c.17-.54.36-1.07.56-1.6a17.22,17.22,0,0,1,1.15-2.39v-.05S146.72,119.65,146.63,119.65Zm-2.81-4.42a4.16,4.16,0,0,0,.7-.82,14,14,0,0,0,.94-1.52c.32-.58.64-1.21,1-1.88s.59-1.31.82-1.94a11.57,11.57,0,0,0,.5-1.67,1.69,1.69,0,0,0,0-1.1l-.84,1.88c-.36.82-.73,1.67-1.11,2.57l-1.12,2.58Z" transform="translate(-32.58 -29.12)"/><text x="-32.58" y="-29.12"></text><text x="-32.58" y="-29.12"></text></svg>