<?xml version="1.0" encoding="UTF-8" standalone="no"?>
<!-- Created with Inkscape (http://www.inkscape.org/) -->
<svg xmlns:dc="http://purl.org/dc/elements/1.1/" xmlns:cc="http://creativecommons.org/ns#" xmlns:rdf="http://www.w3.org/1999/02/22-rdf-syntax-ns#" xmlns:svg="http://www.w3.org/2000/svg" xmlns="http://www.w3.org/2000/svg" xmlns:sodipodi="http://sodipodi.sourceforge.net/DTD/sodipodi-0.dtd" xmlns:inkscape="http://www.inkscape.org/namespaces/inkscape" width="526.83331" height="526.83331" id="svg2" version="1.1" inkscape:version="0.91 r13725" sodipodi:docname="Logo-BUT.svg">
  <defs id="defs4">
    <inkscape:perspective sodipodi:type="inkscape:persp3d" inkscape:vp_x="0 : 526.18109 : 1" inkscape:vp_y="0 : 1000 : 0" inkscape:vp_z="744.09448 : 526.18109 : 1" inkscape:persp3d-origin="372.04724 : 350.78739 : 1" id="perspective10"/>
    <inkscape:perspective id="perspective2884" inkscape:persp3d-origin="0.5 : 0.33333333 : 1" inkscape:vp_z="1 : 0.5 : 1" inkscape:vp_y="0 : 1000 : 0" inkscape:vp_x="0 : 0.5 : 1" sodipodi:type="inkscape:persp3d"/>
  </defs>
  <sodipodi:namedview id="base" pagecolor="#ffffff" bordercolor="#666666" borderopacity="1.0" inkscape:pageopacity="0.0" inkscape:pageshadow="2" inkscape:zoom="0.98994952" inkscape:cx="515.06649" inkscape:cy="259.39537" inkscape:document-units="px" inkscape:current-layer="layer1" showgrid="false" inkscape:window-width="2560" inkscape:window-height="1417" inkscape:window-x="-8" inkscape:window-y="-8" inkscape:window-maximized="1"/>
  <metadata id="metadata7">
    <rdf:RDF>
      <cc:Work rdf:about="">
        <dc:format>image/svg+xml</dc:format>
        <dc:type rdf:resource="http://purl.org/dc/dcmitype/StillImage"/>
        <dc:title/>
      </cc:Work>
    </rdf:RDF>
  </metadata>
  <g inkscape:label="Calque 1" inkscape:groupmode="layer" id="layer1" transform="translate(-129.41314,-289.50504)">
    <rect style="opacity:1;fill:#ffffff;fill-opacity:1;fill-rule:nonzero;stroke:none;stroke-width:1;stroke-linecap:butt;stroke-miterlimit:4;stroke-dasharray:none;stroke-dashoffset:0;stroke-opacity:1" id="rect4136" width="539.42145" height="537.40112" x="126.38268" y="287.01843"/>
    <path style="fill:#e2001a;fill-opacity:1" d="m 129.41314,289.50504 526.8333,0 0,526.83333 -526.8333,0 0,-526.83333 z m 268.25,333.5 c 35.3762,0 60.2047,-0.62484 59.3838,-52.99186 l -1.3838,-88.27431 -21.75,0 -21.75,0 0,101.76646 c 0,15.87713 -29,16.26904 -29,0 l 0,-101.76646 -24.3201,0 -21.5966,0 0,88.27431 c 0,49.57897 25.0405,52.99186 60.4167,52.99186 z m -103.1897,-5.22237 c 23.1711,-12.40084 26.9344,-54.59848 5.9181,-66.35982 -7.8594,-4.3983 -7.8763,-5.21035 -0.268,-12.81869 11.2551,-11.25514 10.415,-38.97371 -1.5437,-50.93245 -8.31,-8.30994 -16.1111,-5.93284 -55.5834,-5.93284 l -41.876,0 0,68.76617 0,72.5 65.7479,0 c 20.8584,0 24.2377,-3.4202 27.6051,-5.22237 z m -53.7047,-51.89037 c 24.0949,0 31.9644,-0.339 31.9644,14.05637 0,14.39537 -7.19,14.05637 -31.9644,14.05637 l 0,-28.11274 z m 0,-58.8873 c 18.1769,0 29.4541,-2.89772 29.4541,11.63971 0,14.78994 -12.5882,11.63971 -29.4541,11.63971 l 0,-23.27942 z m 310.9472,60.41671 0,-55.58334 34.8436,0 0,-30.0995 -54.7714,0 -53.7612,0 -1.4915,30.0995 34.3147,0 0,56.79167 0,54.375 22.3046,0 18.5612,0 0,-55.58333 z" id="path3713" sodipodi:nodetypes="cccccczcccsscccszcsssccccccczccczccccccccccccccc"/>
  </g>
</svg>