<svg id="Calque_1" data-name="Calque 1" xmlns="http://www.w3.org/2000/svg" viewBox="0 0 1420.07 425.5"><defs><style>.cls-1,.cls-8,.cls-9{fill:#e6e6e6;}.cls-1,.cls-5,.cls-8{stroke:#000;stroke-miterlimit:10;}.cls-1,.cls-8{stroke-width:3px;}.cls-2{fill:#fff;}.cls-3,.cls-4,.cls-5,.cls-6,.cls-7{fill:#124559;}.cls-3{opacity:0.74;}.cls-4{opacity:0.72;}.cls-5{stroke-width:0.25px;}.cls-5,.cls-6{opacity:0.38;}.cls-7{opacity:0.69;}.cls-8{font-size:311.78px;font-family:Roboto-Regular, Roboto;}</style></defs><title>Stand4YOULogo</title><path class="cls-1" d="M623.35,527V314.11h55.44q25.62,0,45.32,12.28t30.41,34.95q10.72,22.67,10.86,52.05V427q0,30.12-10.72,52.78T724,514.57Q704.15,526.7,677.71,527Zm25.9-189.94V504h27.24q30,0,46.61-20.19t16.65-57.52V413.89q0-36.28-15.71-56.41t-44.58-20.42Z" transform="translate(-15.43 -185.04)"/><rect class="cls-2" x="731.58" y="212" width="44.94" height="32.78" rx="0.01" ry="0.01"/><polygon class="cls-3" points="883.28 71.4 882.39 300.03 847.42 334.76 848.36 117.17 883.28 71.4"/><polygon class="cls-4" points="894.93 0.21 919.22 0.13 919.28 87.39 894.93 61.33 894.93 0.21"/><polygon class="cls-5" points="919.28 24.21 919.28 0.13 831.36 0.13 857.55 24.32 919.28 24.21"/><polygon class="cls-4" points="672.46 250.84 655.21 233.84 717.28 172.09 715.95 207.63 672.46 250.84"/><polygon class="cls-6" points="672.38 216.76 655.24 233.79 717.41 295.56 716.11 260.05 672.38 216.76"/><polygon class="cls-4" points="882.95 335.68 865.83 352.82 803.69 291.15 839.45 292.47 882.95 335.68"/><polygon class="cls-6" points="848.65 335.83 865.79 352.86 927.96 291.09 892.22 292.38 848.65 335.83"/><polygon class="cls-3" points="846.96 243.37 701.48 243.37 673.45 215.52 846.96 215.64 846.96 243.37"/><polygon class="cls-3" points="730.42 214.36 875.66 25.82 919.34 25.82 774.2 214.36 730.42 214.36"/><rect class="cls-7" x="886.15" y="216.06" width="16.02" height="27.91"/><path class="cls-1" d="M131.66,378.06Q77,362.22,52,339.14t-24.92-57q0-38.36,30.46-63.46t79.18-25.09q33.23,0,59.25,12.94t40.31,35.68A91.77,91.77,0,0,1,250.6,292H207.86q0-29.54-18.61-46.44t-52.49-16.9q-31.45,0-49.06,14T70.09,281.36q0,19.89,16.72,33.63t56.93,25.13q40.2,11.4,62.9,25.12t33.66,32q11,18.3,11,43.05,0,39.48-30.57,63.23T139,527.27a150.62,150.62,0,0,1-62-12.82q-28.8-12.83-44.41-35.13T16.93,428.69H59.68q0,29.44,21.6,46.5T139,492.26q33.67,0,51.61-13.83t17.94-37.7q0-23.87-16.61-36.91T131.66,378.06Z" transform="translate(-15.43 -185.04)"/><path class="cls-1" d="M446.06,471.52H357.14l-20,55.55H308.3l81.06-212.26h24.49l81.2,212.26H466.33ZM365.6,448.64h72.16L401.6,349.36Z" transform="translate(-15.43 -185.04)"/><path class="cls-1" d="M650.3,527.06H621.59L512.54,363.73V527.06H483.82V315.11h28.72L621.88,479.17V315.11H650.3Z" transform="translate(-15.43 -185.04)"/><path class="cls-1" d="M1015.65,414.45l59-113.57h33.87l-78,141.85v84.36h-29.83V442.73l-78-141.85h34.18Z" transform="translate(-15.43 -185.04)"/><path class="cls-1" d="M1250.89,426.34q0,32.6-11,56.87t-31.06,37.07q-20.08,12.78-46.89,12.79-26.18,0-46.43-12.87t-31.44-36.69q-11.19-23.82-11.49-55.19v-16q0-32,11.11-56.48t31.44-37.53q20.32-13,46.51-13,26.64,0,47,12.87t31.28,37.3q11,24.43,11,56.86ZM1221.81,412q0-39.42-15.83-60.51t-44.3-21.09q-27.71,0-43.62,21.09t-16.36,58.53v16.29q0,38.22,16.06,60.06T1162,508.25q28.32,0,43.85-20.63t16-59.14Z" transform="translate(-15.43 -185.04)"/><text class="cls-8" transform="translate(1216.39 339.5)">U</text><path class="cls-1" d="M382.48,317.05H310v210H280.48v-210H208.2V291.67H382.48Z" transform="translate(-15.43 -185.04)"/><rect class="cls-9" x="623.76" y="131.7" width="19.67" height="19.67"/><rect class="cls-9" x="631.57" y="320.96" width="8" height="19"/><rect class="cls-9" x="454.57" y="311.96" width="29" height="28"/><rect class="cls-9" x="454.57" y="312.96" width="29" height="28"/><polyline class="cls-9" points="296.57 337.96 290.57 337.96 290.57 340.96 296.57 340.96 296.57 337.96"/><rect class="cls-9" x="193.57" y="102.96" width="40" height="8"/></svg>